<svg width="2240" height="1688" xmlns="http://www.w3.org/2000/svg">

  <defs>
    <linearGradient id="bgGradient" x1="0" y1="0" x2="1" y2="1">
      <stop offset="0%" stop-color="#e1b382"/>
      <stop offset="100%" stop-color="#c89666"/>
    </linearGradient>
    <filter id="shadow" x="-20%" y="-20%" width="140%" height="140%">
      <feDropShadow dx="0" dy="2" stdDeviation="2" flood-color="#b0b0b0" flood-opacity="0.10"/>
    </filter>
  </defs>
  <rect x="0" y="0" width="2240" height="1688" fill="url(#bgGradient)" rx="24" ry="24" filter="url(#shadow)" />
  <text x="20" y="44" fill="#fff" font-family="Segoe UI, Arial, sans-serif" font-size="20" font-weight="bold" letter-spacing="1">Этаж 2</text>
  <rect x="20" y="316" width="130" height="110" rx="14" ry="14" fill="#12343b" stroke="#e1b382" stroke-width="1.5" filter="url(#shadow)" />
  <text x="30" y="340" fill="#e1b382" font-family="Segoe UI, Arial, sans-serif" font-size="13" font-weight="bold">Кв. 1</text>
  <rect x="20" y="196" width="130" height="110" rx="14" ry="14" fill="#12343b" stroke="#e1b382" stroke-width="1.5" filter="url(#shadow)" />
  <text x="30" y="220" fill="#e1b382" font-family="Segoe UI, Arial, sans-serif" font-size="13" font-weight="bold">Кв. 2</text>
  <rect x="20" y="76" width="130" height="110" rx="14" ry="14" fill="#2d545e" stroke="#e1b382" stroke-width="1.5" filter="url(#shadow)" />
  <text x="30" y="100" fill="#e1b382" font-family="Segoe UI, Arial, sans-serif" font-size="13" font-weight="bold">Кв. 3</text>
  <text x="30" y="120" fill="#fff" font-family="Segoe UI, Arial, sans-serif" font-size="13" font-weight="bold">2 жильца</text>
  <text x="30" y="140" fill="#fff" font-family="Segoe UI, Arial, sans-serif" font-size="12">evgeniy_logvinov</text>
  <text x="30" y="156" fill="#fff" font-family="Segoe UI, Arial, sans-serif" font-size="12">123123</text>
  <rect x="180" y="76" width="130" height="110" rx="14" ry="14" fill="#12343b" stroke="#e1b382" stroke-width="1.5" filter="url(#shadow)" />
  <text x="190" y="100" fill="#e1b382" font-family="Segoe UI, Arial, sans-serif" font-size="13" font-weight="bold">Кв. 4</text>
  <rect x="180" y="196" width="130" height="110" rx="14" ry="14" fill="#12343b" stroke="#e1b382" stroke-width="1.5" filter="url(#shadow)" />
  <text x="190" y="220" fill="#e1b382" font-family="Segoe UI, Arial, sans-serif" font-size="13" font-weight="bold">Кв. 5</text>
  <rect x="180" y="316" width="130" height="110" rx="14" ry="14" fill="#12343b" stroke="#e1b382" stroke-width="1.5" filter="url(#shadow)" />
  <text x="190" y="340" fill="#e1b382" font-family="Segoe UI, Arial, sans-serif" font-size="13" font-weight="bold">Кв. 6</text>
  <text x="390" y="44" fill="#fff" font-family="Segoe UI, Arial, sans-serif" font-size="20" font-weight="bold" letter-spacing="1">Этаж 3</text>
  <rect x="390" y="316" width="130" height="110" rx="14" ry="14" fill="#12343b" stroke="#e1b382" stroke-width="1.5" filter="url(#shadow)" />
  <text x="400" y="340" fill="#e1b382" font-family="Segoe UI, Arial, sans-serif" font-size="13" font-weight="bold">Кв. 7</text>
  <rect x="390" y="196" width="130" height="110" rx="14" ry="14" fill="#12343b" stroke="#e1b382" stroke-width="1.5" filter="url(#shadow)" />
  <text x="400" y="220" fill="#e1b382" font-family="Segoe UI, Arial, sans-serif" font-size="13" font-weight="bold">Кв. 8</text>
  <rect x="390" y="76" width="130" height="110" rx="14" ry="14" fill="#12343b" stroke="#e1b382" stroke-width="1.5" filter="url(#shadow)" />
  <text x="400" y="100" fill="#e1b382" font-family="Segoe UI, Arial, sans-serif" font-size="13" font-weight="bold">Кв. 9</text>
  <rect x="550" y="76" width="130" height="110" rx="14" ry="14" fill="#12343b" stroke="#e1b382" stroke-width="1.5" filter="url(#shadow)" />
  <text x="560" y="100" fill="#e1b382" font-family="Segoe UI, Arial, sans-serif" font-size="13" font-weight="bold">Кв. 10</text>
  <rect x="550" y="196" width="130" height="110" rx="14" ry="14" fill="#12343b" stroke="#e1b382" stroke-width="1.5" filter="url(#shadow)" />
  <text x="560" y="220" fill="#e1b382" font-family="Segoe UI, Arial, sans-serif" font-size="13" font-weight="bold">Кв. 11</text>
  <rect x="550" y="316" width="130" height="110" rx="14" ry="14" fill="#12343b" stroke="#e1b382" stroke-width="1.5" filter="url(#shadow)" />
  <text x="560" y="340" fill="#e1b382" font-family="Segoe UI, Arial, sans-serif" font-size="13" font-weight="bold">Кв. 12</text>
  <text x="760" y="44" fill="#fff" font-family="Segoe UI, Arial, sans-serif" font-size="20" font-weight="bold" letter-spacing="1">Этаж 4</text>
  <rect x="760" y="316" width="130" height="110" rx="14" ry="14" fill="#12343b" stroke="#e1b382" stroke-width="1.5" filter="url(#shadow)" />
  <text x="770" y="340" fill="#e1b382" font-family="Segoe UI, Arial, sans-serif" font-size="13" font-weight="bold">Кв. 13</text>
  <rect x="760" y="196" width="130" height="110" rx="14" ry="14" fill="#12343b" stroke="#e1b382" stroke-width="1.5" filter="url(#shadow)" />
  <text x="770" y="220" fill="#e1b382" font-family="Segoe UI, Arial, sans-serif" font-size="13" font-weight="bold">Кв. 14</text>
  <rect x="760" y="76" width="130" height="110" rx="14" ry="14" fill="#12343b" stroke="#e1b382" stroke-width="1.5" filter="url(#shadow)" />
  <text x="770" y="100" fill="#e1b382" font-family="Segoe UI, Arial, sans-serif" font-size="13" font-weight="bold">Кв. 15</text>
  <rect x="920" y="76" width="130" height="110" rx="14" ry="14" fill="#12343b" stroke="#e1b382" stroke-width="1.5" filter="url(#shadow)" />
  <text x="930" y="100" fill="#e1b382" font-family="Segoe UI, Arial, sans-serif" font-size="13" font-weight="bold">Кв. 16</text>
  <rect x="920" y="196" width="130" height="110" rx="14" ry="14" fill="#12343b" stroke="#e1b382" stroke-width="1.5" filter="url(#shadow)" />
  <text x="930" y="220" fill="#e1b382" font-family="Segoe UI, Arial, sans-serif" font-size="13" font-weight="bold">Кв. 17</text>
  <rect x="920" y="316" width="130" height="110" rx="14" ry="14" fill="#12343b" stroke="#e1b382" stroke-width="1.5" filter="url(#shadow)" />
  <text x="930" y="340" fill="#e1b382" font-family="Segoe UI, Arial, sans-serif" font-size="13" font-weight="bold">Кв. 18</text>
  <text x="1130" y="44" fill="#fff" font-family="Segoe UI, Arial, sans-serif" font-size="20" font-weight="bold" letter-spacing="1">Этаж 5</text>
  <rect x="1130" y="316" width="130" height="110" rx="14" ry="14" fill="#12343b" stroke="#e1b382" stroke-width="1.5" filter="url(#shadow)" />
  <text x="1140" y="340" fill="#e1b382" font-family="Segoe UI, Arial, sans-serif" font-size="13" font-weight="bold">Кв. 19</text>
  <rect x="1130" y="196" width="130" height="110" rx="14" ry="14" fill="#12343b" stroke="#e1b382" stroke-width="1.5" filter="url(#shadow)" />
  <text x="1140" y="220" fill="#e1b382" font-family="Segoe UI, Arial, sans-serif" font-size="13" font-weight="bold">Кв. 20</text>
  <rect x="1130" y="76" width="130" height="110" rx="14" ry="14" fill="#12343b" stroke="#e1b382" stroke-width="1.5" filter="url(#shadow)" />
  <text x="1140" y="100" fill="#e1b382" font-family="Segoe UI, Arial, sans-serif" font-size="13" font-weight="bold">Кв. 21</text>
  <rect x="1290" y="76" width="130" height="110" rx="14" ry="14" fill="#12343b" stroke="#e1b382" stroke-width="1.5" filter="url(#shadow)" />
  <text x="1300" y="100" fill="#e1b382" font-family="Segoe UI, Arial, sans-serif" font-size="13" font-weight="bold">Кв. 22</text>
  <rect x="1290" y="196" width="130" height="110" rx="14" ry="14" fill="#2d545e" stroke="#e1b382" stroke-width="1.5" filter="url(#shadow)" />
  <text x="1300" y="220" fill="#e1b382" font-family="Segoe UI, Arial, sans-serif" font-size="13" font-weight="bold">Кв. 23</text>
  <text x="1300" y="240" fill="#fff" font-family="Segoe UI, Arial, sans-serif" font-size="13" font-weight="bold">1 жилец</text>
  <text x="1300" y="260" fill="#fff" font-family="Segoe UI, Arial, sans-serif" font-size="12">evgeniy_logvinov</text>
  <rect x="1290" y="316" width="130" height="110" rx="14" ry="14" fill="#12343b" stroke="#e1b382" stroke-width="1.5" filter="url(#shadow)" />
  <text x="1300" y="340" fill="#e1b382" font-family="Segoe UI, Arial, sans-serif" font-size="13" font-weight="bold">Кв. 24</text>
  <text x="1500" y="44" fill="#fff" font-family="Segoe UI, Arial, sans-serif" font-size="20" font-weight="bold" letter-spacing="1">Этаж 6</text>
  <rect x="1500" y="316" width="130" height="110" rx="14" ry="14" fill="#12343b" stroke="#e1b382" stroke-width="1.5" filter="url(#shadow)" />
  <text x="1510" y="340" fill="#e1b382" font-family="Segoe UI, Arial, sans-serif" font-size="13" font-weight="bold">Кв. 25</text>
  <rect x="1500" y="196" width="130" height="110" rx="14" ry="14" fill="#12343b" stroke="#e1b382" stroke-width="1.5" filter="url(#shadow)" />
  <text x="1510" y="220" fill="#e1b382" font-family="Segoe UI, Arial, sans-serif" font-size="13" font-weight="bold">Кв. 26</text>
  <rect x="1500" y="76" width="130" height="110" rx="14" ry="14" fill="#12343b" stroke="#e1b382" stroke-width="1.5" filter="url(#shadow)" />
  <text x="1510" y="100" fill="#e1b382" font-family="Segoe UI, Arial, sans-serif" font-size="13" font-weight="bold">Кв. 27</text>
  <rect x="1660" y="76" width="130" height="110" rx="14" ry="14" fill="#12343b" stroke="#e1b382" stroke-width="1.5" filter="url(#shadow)" />
  <text x="1670" y="100" fill="#e1b382" font-family="Segoe UI, Arial, sans-serif" font-size="13" font-weight="bold">Кв. 28</text>
  <rect x="1660" y="196" width="130" height="110" rx="14" ry="14" fill="#12343b" stroke="#e1b382" stroke-width="1.5" filter="url(#shadow)" />
  <text x="1670" y="220" fill="#e1b382" font-family="Segoe UI, Arial, sans-serif" font-size="13" font-weight="bold">Кв. 29</text>
  <rect x="1660" y="316" width="130" height="110" rx="14" ry="14" fill="#12343b" stroke="#e1b382" stroke-width="1.5" filter="url(#shadow)" />
  <text x="1670" y="340" fill="#e1b382" font-family="Segoe UI, Arial, sans-serif" font-size="13" font-weight="bold">Кв. 30</text>
  <text x="1870" y="44" fill="#fff" font-family="Segoe UI, Arial, sans-serif" font-size="20" font-weight="bold" letter-spacing="1">Этаж 7</text>
  <rect x="1870" y="316" width="130" height="110" rx="14" ry="14" fill="#12343b" stroke="#e1b382" stroke-width="1.5" filter="url(#shadow)" />
  <text x="1880" y="340" fill="#e1b382" font-family="Segoe UI, Arial, sans-serif" font-size="13" font-weight="bold">Кв. 31</text>
  <rect x="1870" y="196" width="130" height="110" rx="14" ry="14" fill="#12343b" stroke="#e1b382" stroke-width="1.5" filter="url(#shadow)" />
  <text x="1880" y="220" fill="#e1b382" font-family="Segoe UI, Arial, sans-serif" font-size="13" font-weight="bold">Кв. 32</text>
  <rect x="1870" y="76" width="130" height="110" rx="14" ry="14" fill="#12343b" stroke="#e1b382" stroke-width="1.5" filter="url(#shadow)" />
  <text x="1880" y="100" fill="#e1b382" font-family="Segoe UI, Arial, sans-serif" font-size="13" font-weight="bold">Кв. 33</text>
  <rect x="2030" y="76" width="130" height="110" rx="14" ry="14" fill="#12343b" stroke="#e1b382" stroke-width="1.5" filter="url(#shadow)" />
  <text x="2040" y="100" fill="#e1b382" font-family="Segoe UI, Arial, sans-serif" font-size="13" font-weight="bold">Кв. 34</text>
  <rect x="2030" y="196" width="130" height="110" rx="14" ry="14" fill="#12343b" stroke="#e1b382" stroke-width="1.5" filter="url(#shadow)" />
  <text x="2040" y="220" fill="#e1b382" font-family="Segoe UI, Arial, sans-serif" font-size="13" font-weight="bold">Кв. 35</text>
  <rect x="2030" y="316" width="130" height="110" rx="14" ry="14" fill="#12343b" stroke="#e1b382" stroke-width="1.5" filter="url(#shadow)" />
  <text x="2040" y="340" fill="#e1b382" font-family="Segoe UI, Arial, sans-serif" font-size="13" font-weight="bold">Кв. 36</text>
  <text x="20" y="456" fill="#fff" font-family="Segoe UI, Arial, sans-serif" font-size="20" font-weight="bold" letter-spacing="1">Этаж 8</text>
  <rect x="20" y="728" width="130" height="110" rx="14" ry="14" fill="#12343b" stroke="#e1b382" stroke-width="1.5" filter="url(#shadow)" />
  <text x="30" y="752" fill="#e1b382" font-family="Segoe UI, Arial, sans-serif" font-size="13" font-weight="bold">Кв. 37</text>
  <rect x="20" y="608" width="130" height="110" rx="14" ry="14" fill="#12343b" stroke="#e1b382" stroke-width="1.5" filter="url(#shadow)" />
  <text x="30" y="632" fill="#e1b382" font-family="Segoe UI, Arial, sans-serif" font-size="13" font-weight="bold">Кв. 38</text>
  <rect x="20" y="488" width="130" height="110" rx="14" ry="14" fill="#12343b" stroke="#e1b382" stroke-width="1.5" filter="url(#shadow)" />
  <text x="30" y="512" fill="#e1b382" font-family="Segoe UI, Arial, sans-serif" font-size="13" font-weight="bold">Кв. 39</text>
  <rect x="180" y="488" width="130" height="110" rx="14" ry="14" fill="#12343b" stroke="#e1b382" stroke-width="1.5" filter="url(#shadow)" />
  <text x="190" y="512" fill="#e1b382" font-family="Segoe UI, Arial, sans-serif" font-size="13" font-weight="bold">Кв. 40</text>
  <rect x="180" y="608" width="130" height="110" rx="14" ry="14" fill="#12343b" stroke="#e1b382" stroke-width="1.5" filter="url(#shadow)" />
  <text x="190" y="632" fill="#e1b382" font-family="Segoe UI, Arial, sans-serif" font-size="13" font-weight="bold">Кв. 41</text>
  <rect x="180" y="728" width="130" height="110" rx="14" ry="14" fill="#12343b" stroke="#e1b382" stroke-width="1.5" filter="url(#shadow)" />
  <text x="190" y="752" fill="#e1b382" font-family="Segoe UI, Arial, sans-serif" font-size="13" font-weight="bold">Кв. 42</text>
  <text x="390" y="456" fill="#fff" font-family="Segoe UI, Arial, sans-serif" font-size="20" font-weight="bold" letter-spacing="1">Этаж 9</text>
  <rect x="390" y="728" width="130" height="110" rx="14" ry="14" fill="#12343b" stroke="#e1b382" stroke-width="1.5" filter="url(#shadow)" />
  <text x="400" y="752" fill="#e1b382" font-family="Segoe UI, Arial, sans-serif" font-size="13" font-weight="bold">Кв. 43</text>
  <rect x="390" y="608" width="130" height="110" rx="14" ry="14" fill="#12343b" stroke="#e1b382" stroke-width="1.5" filter="url(#shadow)" />
  <text x="400" y="632" fill="#e1b382" font-family="Segoe UI, Arial, sans-serif" font-size="13" font-weight="bold">Кв. 44</text>
  <rect x="390" y="488" width="130" height="110" rx="14" ry="14" fill="#12343b" stroke="#e1b382" stroke-width="1.5" filter="url(#shadow)" />
  <text x="400" y="512" fill="#e1b382" font-family="Segoe UI, Arial, sans-serif" font-size="13" font-weight="bold">Кв. 45</text>
  <rect x="550" y="488" width="130" height="110" rx="14" ry="14" fill="#12343b" stroke="#e1b382" stroke-width="1.5" filter="url(#shadow)" />
  <text x="560" y="512" fill="#e1b382" font-family="Segoe UI, Arial, sans-serif" font-size="13" font-weight="bold">Кв. 46</text>
  <rect x="550" y="608" width="130" height="110" rx="14" ry="14" fill="#12343b" stroke="#e1b382" stroke-width="1.5" filter="url(#shadow)" />
  <text x="560" y="632" fill="#e1b382" font-family="Segoe UI, Arial, sans-serif" font-size="13" font-weight="bold">Кв. 47</text>
  <rect x="550" y="728" width="130" height="110" rx="14" ry="14" fill="#12343b" stroke="#e1b382" stroke-width="1.5" filter="url(#shadow)" />
  <text x="560" y="752" fill="#e1b382" font-family="Segoe UI, Arial, sans-serif" font-size="13" font-weight="bold">Кв. 48</text>
  <text x="760" y="456" fill="#fff" font-family="Segoe UI, Arial, sans-serif" font-size="20" font-weight="bold" letter-spacing="1">Этаж 10</text>
  <rect x="760" y="728" width="130" height="110" rx="14" ry="14" fill="#12343b" stroke="#e1b382" stroke-width="1.5" filter="url(#shadow)" />
  <text x="770" y="752" fill="#e1b382" font-family="Segoe UI, Arial, sans-serif" font-size="13" font-weight="bold">Кв. 49</text>
  <rect x="760" y="608" width="130" height="110" rx="14" ry="14" fill="#12343b" stroke="#e1b382" stroke-width="1.5" filter="url(#shadow)" />
  <text x="770" y="632" fill="#e1b382" font-family="Segoe UI, Arial, sans-serif" font-size="13" font-weight="bold">Кв. 50</text>
  <rect x="760" y="488" width="130" height="110" rx="14" ry="14" fill="#12343b" stroke="#e1b382" stroke-width="1.5" filter="url(#shadow)" />
  <text x="770" y="512" fill="#e1b382" font-family="Segoe UI, Arial, sans-serif" font-size="13" font-weight="bold">Кв. 51</text>
  <rect x="920" y="488" width="130" height="110" rx="14" ry="14" fill="#12343b" stroke="#e1b382" stroke-width="1.5" filter="url(#shadow)" />
  <text x="930" y="512" fill="#e1b382" font-family="Segoe UI, Arial, sans-serif" font-size="13" font-weight="bold">Кв. 52</text>
  <rect x="920" y="608" width="130" height="110" rx="14" ry="14" fill="#12343b" stroke="#e1b382" stroke-width="1.5" filter="url(#shadow)" />
  <text x="930" y="632" fill="#e1b382" font-family="Segoe UI, Arial, sans-serif" font-size="13" font-weight="bold">Кв. 53</text>
  <rect x="920" y="728" width="130" height="110" rx="14" ry="14" fill="#12343b" stroke="#e1b382" stroke-width="1.5" filter="url(#shadow)" />
  <text x="930" y="752" fill="#e1b382" font-family="Segoe UI, Arial, sans-serif" font-size="13" font-weight="bold">Кв. 54</text>
  <text x="1130" y="456" fill="#fff" font-family="Segoe UI, Arial, sans-serif" font-size="20" font-weight="bold" letter-spacing="1">Этаж 11</text>
  <rect x="1130" y="728" width="130" height="110" rx="14" ry="14" fill="#12343b" stroke="#e1b382" stroke-width="1.5" filter="url(#shadow)" />
  <text x="1140" y="752" fill="#e1b382" font-family="Segoe UI, Arial, sans-serif" font-size="13" font-weight="bold">Кв. 55</text>
  <rect x="1130" y="608" width="130" height="110" rx="14" ry="14" fill="#12343b" stroke="#e1b382" stroke-width="1.5" filter="url(#shadow)" />
  <text x="1140" y="632" fill="#e1b382" font-family="Segoe UI, Arial, sans-serif" font-size="13" font-weight="bold">Кв. 56</text>
  <rect x="1130" y="488" width="130" height="110" rx="14" ry="14" fill="#12343b" stroke="#e1b382" stroke-width="1.5" filter="url(#shadow)" />
  <text x="1140" y="512" fill="#e1b382" font-family="Segoe UI, Arial, sans-serif" font-size="13" font-weight="bold">Кв. 57</text>
  <rect x="1290" y="488" width="130" height="110" rx="14" ry="14" fill="#12343b" stroke="#e1b382" stroke-width="1.5" filter="url(#shadow)" />
  <text x="1300" y="512" fill="#e1b382" font-family="Segoe UI, Arial, sans-serif" font-size="13" font-weight="bold">Кв. 58</text>
  <rect x="1290" y="608" width="130" height="110" rx="14" ry="14" fill="#12343b" stroke="#e1b382" stroke-width="1.5" filter="url(#shadow)" />
  <text x="1300" y="632" fill="#e1b382" font-family="Segoe UI, Arial, sans-serif" font-size="13" font-weight="bold">Кв. 59</text>
  <rect x="1290" y="728" width="130" height="110" rx="14" ry="14" fill="#12343b" stroke="#e1b382" stroke-width="1.5" filter="url(#shadow)" />
  <text x="1300" y="752" fill="#e1b382" font-family="Segoe UI, Arial, sans-serif" font-size="13" font-weight="bold">Кв. 60</text>
  <text x="1500" y="456" fill="#fff" font-family="Segoe UI, Arial, sans-serif" font-size="20" font-weight="bold" letter-spacing="1">Этаж 12</text>
  <rect x="1500" y="728" width="130" height="110" rx="14" ry="14" fill="#12343b" stroke="#e1b382" stroke-width="1.5" filter="url(#shadow)" />
  <text x="1510" y="752" fill="#e1b382" font-family="Segoe UI, Arial, sans-serif" font-size="13" font-weight="bold">Кв. 61</text>
  <rect x="1500" y="608" width="130" height="110" rx="14" ry="14" fill="#12343b" stroke="#e1b382" stroke-width="1.5" filter="url(#shadow)" />
  <text x="1510" y="632" fill="#e1b382" font-family="Segoe UI, Arial, sans-serif" font-size="13" font-weight="bold">Кв. 62</text>
  <rect x="1500" y="488" width="130" height="110" rx="14" ry="14" fill="#12343b" stroke="#e1b382" stroke-width="1.5" filter="url(#shadow)" />
  <text x="1510" y="512" fill="#e1b382" font-family="Segoe UI, Arial, sans-serif" font-size="13" font-weight="bold">Кв. 63</text>
  <rect x="1660" y="488" width="130" height="110" rx="14" ry="14" fill="#12343b" stroke="#e1b382" stroke-width="1.5" filter="url(#shadow)" />
  <text x="1670" y="512" fill="#e1b382" font-family="Segoe UI, Arial, sans-serif" font-size="13" font-weight="bold">Кв. 64</text>
  <rect x="1660" y="608" width="130" height="110" rx="14" ry="14" fill="#12343b" stroke="#e1b382" stroke-width="1.5" filter="url(#shadow)" />
  <text x="1670" y="632" fill="#e1b382" font-family="Segoe UI, Arial, sans-serif" font-size="13" font-weight="bold">Кв. 65</text>
  <rect x="1660" y="728" width="130" height="110" rx="14" ry="14" fill="#12343b" stroke="#e1b382" stroke-width="1.5" filter="url(#shadow)" />
  <text x="1670" y="752" fill="#e1b382" font-family="Segoe UI, Arial, sans-serif" font-size="13" font-weight="bold">Кв. 66</text>
  <text x="1870" y="456" fill="#fff" font-family="Segoe UI, Arial, sans-serif" font-size="20" font-weight="bold" letter-spacing="1">Этаж 13</text>
  <rect x="1870" y="728" width="130" height="110" rx="14" ry="14" fill="#12343b" stroke="#e1b382" stroke-width="1.5" filter="url(#shadow)" />
  <text x="1880" y="752" fill="#e1b382" font-family="Segoe UI, Arial, sans-serif" font-size="13" font-weight="bold">Кв. 67</text>
  <rect x="1870" y="608" width="130" height="110" rx="14" ry="14" fill="#12343b" stroke="#e1b382" stroke-width="1.5" filter="url(#shadow)" />
  <text x="1880" y="632" fill="#e1b382" font-family="Segoe UI, Arial, sans-serif" font-size="13" font-weight="bold">Кв. 68</text>
  <rect x="1870" y="488" width="130" height="110" rx="14" ry="14" fill="#12343b" stroke="#e1b382" stroke-width="1.5" filter="url(#shadow)" />
  <text x="1880" y="512" fill="#e1b382" font-family="Segoe UI, Arial, sans-serif" font-size="13" font-weight="bold">Кв. 69</text>
  <rect x="2030" y="488" width="130" height="110" rx="14" ry="14" fill="#12343b" stroke="#e1b382" stroke-width="1.5" filter="url(#shadow)" />
  <text x="2040" y="512" fill="#e1b382" font-family="Segoe UI, Arial, sans-serif" font-size="13" font-weight="bold">Кв. 70</text>
  <rect x="2030" y="608" width="130" height="110" rx="14" ry="14" fill="#12343b" stroke="#e1b382" stroke-width="1.5" filter="url(#shadow)" />
  <text x="2040" y="632" fill="#e1b382" font-family="Segoe UI, Arial, sans-serif" font-size="13" font-weight="bold">Кв. 71</text>
  <rect x="2030" y="728" width="130" height="110" rx="14" ry="14" fill="#12343b" stroke="#e1b382" stroke-width="1.5" filter="url(#shadow)" />
  <text x="2040" y="752" fill="#e1b382" font-family="Segoe UI, Arial, sans-serif" font-size="13" font-weight="bold">Кв. 72</text>
  <text x="20" y="868" fill="#fff" font-family="Segoe UI, Arial, sans-serif" font-size="20" font-weight="bold" letter-spacing="1">Этаж 14</text>
  <rect x="20" y="1140" width="130" height="110" rx="14" ry="14" fill="#12343b" stroke="#e1b382" stroke-width="1.5" filter="url(#shadow)" />
  <text x="30" y="1164" fill="#e1b382" font-family="Segoe UI, Arial, sans-serif" font-size="13" font-weight="bold">Кв. 73</text>
  <rect x="20" y="1020" width="130" height="110" rx="14" ry="14" fill="#12343b" stroke="#e1b382" stroke-width="1.5" filter="url(#shadow)" />
  <text x="30" y="1044" fill="#e1b382" font-family="Segoe UI, Arial, sans-serif" font-size="13" font-weight="bold">Кв. 74</text>
  <rect x="20" y="900" width="130" height="110" rx="14" ry="14" fill="#12343b" stroke="#e1b382" stroke-width="1.5" filter="url(#shadow)" />
  <text x="30" y="924" fill="#e1b382" font-family="Segoe UI, Arial, sans-serif" font-size="13" font-weight="bold">Кв. 75</text>
  <rect x="180" y="900" width="130" height="110" rx="14" ry="14" fill="#12343b" stroke="#e1b382" stroke-width="1.5" filter="url(#shadow)" />
  <text x="190" y="924" fill="#e1b382" font-family="Segoe UI, Arial, sans-serif" font-size="13" font-weight="bold">Кв. 76</text>
  <rect x="180" y="1020" width="130" height="110" rx="14" ry="14" fill="#12343b" stroke="#e1b382" stroke-width="1.5" filter="url(#shadow)" />
  <text x="190" y="1044" fill="#e1b382" font-family="Segoe UI, Arial, sans-serif" font-size="13" font-weight="bold">Кв. 77</text>
  <rect x="180" y="1140" width="130" height="110" rx="14" ry="14" fill="#12343b" stroke="#e1b382" stroke-width="1.5" filter="url(#shadow)" />
  <text x="190" y="1164" fill="#e1b382" font-family="Segoe UI, Arial, sans-serif" font-size="13" font-weight="bold">Кв. 78</text>
  <text x="390" y="868" fill="#fff" font-family="Segoe UI, Arial, sans-serif" font-size="20" font-weight="bold" letter-spacing="1">Этаж 15</text>
  <rect x="390" y="1140" width="130" height="110" rx="14" ry="14" fill="#12343b" stroke="#e1b382" stroke-width="1.5" filter="url(#shadow)" />
  <text x="400" y="1164" fill="#e1b382" font-family="Segoe UI, Arial, sans-serif" font-size="13" font-weight="bold">Кв. 79</text>
  <rect x="390" y="1020" width="130" height="110" rx="14" ry="14" fill="#12343b" stroke="#e1b382" stroke-width="1.5" filter="url(#shadow)" />
  <text x="400" y="1044" fill="#e1b382" font-family="Segoe UI, Arial, sans-serif" font-size="13" font-weight="bold">Кв. 80</text>
  <rect x="390" y="900" width="130" height="110" rx="14" ry="14" fill="#12343b" stroke="#e1b382" stroke-width="1.5" filter="url(#shadow)" />
  <text x="400" y="924" fill="#e1b382" font-family="Segoe UI, Arial, sans-serif" font-size="13" font-weight="bold">Кв. 81</text>
  <rect x="550" y="900" width="130" height="110" rx="14" ry="14" fill="#12343b" stroke="#e1b382" stroke-width="1.5" filter="url(#shadow)" />
  <text x="560" y="924" fill="#e1b382" font-family="Segoe UI, Arial, sans-serif" font-size="13" font-weight="bold">Кв. 82</text>
  <rect x="550" y="1020" width="130" height="110" rx="14" ry="14" fill="#12343b" stroke="#e1b382" stroke-width="1.5" filter="url(#shadow)" />
  <text x="560" y="1044" fill="#e1b382" font-family="Segoe UI, Arial, sans-serif" font-size="13" font-weight="bold">Кв. 83</text>
  <rect x="550" y="1140" width="130" height="110" rx="14" ry="14" fill="#12343b" stroke="#e1b382" stroke-width="1.5" filter="url(#shadow)" />
  <text x="560" y="1164" fill="#e1b382" font-family="Segoe UI, Arial, sans-serif" font-size="13" font-weight="bold">Кв. 84</text>
  <text x="760" y="868" fill="#fff" font-family="Segoe UI, Arial, sans-serif" font-size="20" font-weight="bold" letter-spacing="1">Этаж 16</text>
  <rect x="760" y="1140" width="130" height="110" rx="14" ry="14" fill="#12343b" stroke="#e1b382" stroke-width="1.5" filter="url(#shadow)" />
  <text x="770" y="1164" fill="#e1b382" font-family="Segoe UI, Arial, sans-serif" font-size="13" font-weight="bold">Кв. 85</text>
  <rect x="760" y="1020" width="130" height="110" rx="14" ry="14" fill="#12343b" stroke="#e1b382" stroke-width="1.5" filter="url(#shadow)" />
  <text x="770" y="1044" fill="#e1b382" font-family="Segoe UI, Arial, sans-serif" font-size="13" font-weight="bold">Кв. 86</text>
  <rect x="760" y="900" width="130" height="110" rx="14" ry="14" fill="#12343b" stroke="#e1b382" stroke-width="1.5" filter="url(#shadow)" />
  <text x="770" y="924" fill="#e1b382" font-family="Segoe UI, Arial, sans-serif" font-size="13" font-weight="bold">Кв. 87</text>
  <rect x="920" y="900" width="130" height="110" rx="14" ry="14" fill="#12343b" stroke="#e1b382" stroke-width="1.5" filter="url(#shadow)" />
  <text x="930" y="924" fill="#e1b382" font-family="Segoe UI, Arial, sans-serif" font-size="13" font-weight="bold">Кв. 88</text>
  <rect x="920" y="1020" width="130" height="110" rx="14" ry="14" fill="#12343b" stroke="#e1b382" stroke-width="1.5" filter="url(#shadow)" />
  <text x="930" y="1044" fill="#e1b382" font-family="Segoe UI, Arial, sans-serif" font-size="13" font-weight="bold">Кв. 89</text>
  <rect x="920" y="1140" width="130" height="110" rx="14" ry="14" fill="#12343b" stroke="#e1b382" stroke-width="1.5" filter="url(#shadow)" />
  <text x="930" y="1164" fill="#e1b382" font-family="Segoe UI, Arial, sans-serif" font-size="13" font-weight="bold">Кв. 90</text>
  <text x="1130" y="868" fill="#fff" font-family="Segoe UI, Arial, sans-serif" font-size="20" font-weight="bold" letter-spacing="1">Этаж 17</text>
  <rect x="1130" y="1140" width="130" height="110" rx="14" ry="14" fill="#12343b" stroke="#e1b382" stroke-width="1.5" filter="url(#shadow)" />
  <text x="1140" y="1164" fill="#e1b382" font-family="Segoe UI, Arial, sans-serif" font-size="13" font-weight="bold">Кв. 91</text>
  <rect x="1130" y="1020" width="130" height="110" rx="14" ry="14" fill="#12343b" stroke="#e1b382" stroke-width="1.5" filter="url(#shadow)" />
  <text x="1140" y="1044" fill="#e1b382" font-family="Segoe UI, Arial, sans-serif" font-size="13" font-weight="bold">Кв. 92</text>
  <rect x="1130" y="900" width="130" height="110" rx="14" ry="14" fill="#12343b" stroke="#e1b382" stroke-width="1.5" filter="url(#shadow)" />
  <text x="1140" y="924" fill="#e1b382" font-family="Segoe UI, Arial, sans-serif" font-size="13" font-weight="bold">Кв. 93</text>
  <rect x="1290" y="900" width="130" height="110" rx="14" ry="14" fill="#12343b" stroke="#e1b382" stroke-width="1.5" filter="url(#shadow)" />
  <text x="1300" y="924" fill="#e1b382" font-family="Segoe UI, Arial, sans-serif" font-size="13" font-weight="bold">Кв. 94</text>
  <rect x="1290" y="1020" width="130" height="110" rx="14" ry="14" fill="#12343b" stroke="#e1b382" stroke-width="1.5" filter="url(#shadow)" />
  <text x="1300" y="1044" fill="#e1b382" font-family="Segoe UI, Arial, sans-serif" font-size="13" font-weight="bold">Кв. 95</text>
  <rect x="1290" y="1140" width="130" height="110" rx="14" ry="14" fill="#12343b" stroke="#e1b382" stroke-width="1.5" filter="url(#shadow)" />
  <text x="1300" y="1164" fill="#e1b382" font-family="Segoe UI, Arial, sans-serif" font-size="13" font-weight="bold">Кв. 96</text>
  <text x="1500" y="868" fill="#fff" font-family="Segoe UI, Arial, sans-serif" font-size="20" font-weight="bold" letter-spacing="1">Этаж 18</text>
  <rect x="1500" y="1140" width="130" height="110" rx="14" ry="14" fill="#12343b" stroke="#e1b382" stroke-width="1.5" filter="url(#shadow)" />
  <text x="1510" y="1164" fill="#e1b382" font-family="Segoe UI, Arial, sans-serif" font-size="13" font-weight="bold">Кв. 97</text>
  <rect x="1500" y="1020" width="130" height="110" rx="14" ry="14" fill="#12343b" stroke="#e1b382" stroke-width="1.5" filter="url(#shadow)" />
  <text x="1510" y="1044" fill="#e1b382" font-family="Segoe UI, Arial, sans-serif" font-size="13" font-weight="bold">Кв. 98</text>
  <rect x="1500" y="900" width="130" height="110" rx="14" ry="14" fill="#12343b" stroke="#e1b382" stroke-width="1.5" filter="url(#shadow)" />
  <text x="1510" y="924" fill="#e1b382" font-family="Segoe UI, Arial, sans-serif" font-size="13" font-weight="bold">Кв. 99</text>
  <rect x="1660" y="900" width="130" height="110" rx="14" ry="14" fill="#2d545e" stroke="#e1b382" stroke-width="1.5" filter="url(#shadow)" />
  <text x="1670" y="924" fill="#e1b382" font-family="Segoe UI, Arial, sans-serif" font-size="13" font-weight="bold">Кв. 100</text>
  <text x="1670" y="944" fill="#fff" font-family="Segoe UI, Arial, sans-serif" font-size="13" font-weight="bold">1 жилец</text>
  <text x="1670" y="964" fill="#fff" font-family="Segoe UI, Arial, sans-serif" font-size="12">evgeniy_logvinov</text>
  <rect x="1660" y="1020" width="130" height="110" rx="14" ry="14" fill="#12343b" stroke="#e1b382" stroke-width="1.5" filter="url(#shadow)" />
  <text x="1670" y="1044" fill="#e1b382" font-family="Segoe UI, Arial, sans-serif" font-size="13" font-weight="bold">Кв. 101</text>
  <rect x="1660" y="1140" width="130" height="110" rx="14" ry="14" fill="#12343b" stroke="#e1b382" stroke-width="1.5" filter="url(#shadow)" />
  <text x="1670" y="1164" fill="#e1b382" font-family="Segoe UI, Arial, sans-serif" font-size="13" font-weight="bold">Кв. 102</text>
  <text x="1870" y="868" fill="#fff" font-family="Segoe UI, Arial, sans-serif" font-size="20" font-weight="bold" letter-spacing="1">Этаж 19</text>
  <rect x="1870" y="1140" width="130" height="110" rx="14" ry="14" fill="#12343b" stroke="#e1b382" stroke-width="1.5" filter="url(#shadow)" />
  <text x="1880" y="1164" fill="#e1b382" font-family="Segoe UI, Arial, sans-serif" font-size="13" font-weight="bold">Кв. 103</text>
  <rect x="1870" y="1020" width="130" height="110" rx="14" ry="14" fill="#12343b" stroke="#e1b382" stroke-width="1.5" filter="url(#shadow)" />
  <text x="1880" y="1044" fill="#e1b382" font-family="Segoe UI, Arial, sans-serif" font-size="13" font-weight="bold">Кв. 104</text>
  <rect x="1870" y="900" width="130" height="110" rx="14" ry="14" fill="#12343b" stroke="#e1b382" stroke-width="1.5" filter="url(#shadow)" />
  <text x="1880" y="924" fill="#e1b382" font-family="Segoe UI, Arial, sans-serif" font-size="13" font-weight="bold">Кв. 105</text>
  <rect x="2030" y="900" width="130" height="110" rx="14" ry="14" fill="#12343b" stroke="#e1b382" stroke-width="1.5" filter="url(#shadow)" />
  <text x="2040" y="924" fill="#e1b382" font-family="Segoe UI, Arial, sans-serif" font-size="13" font-weight="bold">Кв. 106</text>
  <rect x="2030" y="1020" width="130" height="110" rx="14" ry="14" fill="#12343b" stroke="#e1b382" stroke-width="1.5" filter="url(#shadow)" />
  <text x="2040" y="1044" fill="#e1b382" font-family="Segoe UI, Arial, sans-serif" font-size="13" font-weight="bold">Кв. 107</text>
  <rect x="2030" y="1140" width="130" height="110" rx="14" ry="14" fill="#12343b" stroke="#e1b382" stroke-width="1.5" filter="url(#shadow)" />
  <text x="2040" y="1164" fill="#e1b382" font-family="Segoe UI, Arial, sans-serif" font-size="13" font-weight="bold">Кв. 108</text>
  <text x="20" y="1280" fill="#fff" font-family="Segoe UI, Arial, sans-serif" font-size="20" font-weight="bold" letter-spacing="1">Этаж 20</text>
  <rect x="20" y="1552" width="130" height="110" rx="14" ry="14" fill="#12343b" stroke="#e1b382" stroke-width="1.5" filter="url(#shadow)" />
  <text x="30" y="1576" fill="#e1b382" font-family="Segoe UI, Arial, sans-serif" font-size="13" font-weight="bold">Кв. 109</text>
  <rect x="20" y="1432" width="130" height="110" rx="14" ry="14" fill="#12343b" stroke="#e1b382" stroke-width="1.5" filter="url(#shadow)" />
  <text x="30" y="1456" fill="#e1b382" font-family="Segoe UI, Arial, sans-serif" font-size="13" font-weight="bold">Кв. 110</text>
  <rect x="20" y="1312" width="130" height="110" rx="14" ry="14" fill="#12343b" stroke="#e1b382" stroke-width="1.5" filter="url(#shadow)" />
  <text x="30" y="1336" fill="#e1b382" font-family="Segoe UI, Arial, sans-serif" font-size="13" font-weight="bold">Кв. 111</text>
  <rect x="180" y="1312" width="130" height="110" rx="14" ry="14" fill="#12343b" stroke="#e1b382" stroke-width="1.5" filter="url(#shadow)" />
  <text x="190" y="1336" fill="#e1b382" font-family="Segoe UI, Arial, sans-serif" font-size="13" font-weight="bold">Кв. 112</text>
  <rect x="180" y="1432" width="130" height="110" rx="14" ry="14" fill="#12343b" stroke="#e1b382" stroke-width="1.5" filter="url(#shadow)" />
  <text x="190" y="1456" fill="#e1b382" font-family="Segoe UI, Arial, sans-serif" font-size="13" font-weight="bold">Кв. 113</text>
  <rect x="180" y="1552" width="130" height="110" rx="14" ry="14" fill="#12343b" stroke="#e1b382" stroke-width="1.5" filter="url(#shadow)" />
  <text x="190" y="1576" fill="#e1b382" font-family="Segoe UI, Arial, sans-serif" font-size="13" font-weight="bold">Кв. 114</text>
  <text x="390" y="1280" fill="#fff" font-family="Segoe UI, Arial, sans-serif" font-size="20" font-weight="bold" letter-spacing="1">Этаж 21</text>
  <rect x="390" y="1552" width="130" height="110" rx="14" ry="14" fill="#12343b" stroke="#e1b382" stroke-width="1.5" filter="url(#shadow)" />
  <text x="400" y="1576" fill="#e1b382" font-family="Segoe UI, Arial, sans-serif" font-size="13" font-weight="bold">Кв. 115</text>
  <rect x="390" y="1432" width="130" height="110" rx="14" ry="14" fill="#12343b" stroke="#e1b382" stroke-width="1.5" filter="url(#shadow)" />
  <text x="400" y="1456" fill="#e1b382" font-family="Segoe UI, Arial, sans-serif" font-size="13" font-weight="bold">Кв. 116</text>
  <rect x="390" y="1312" width="130" height="110" rx="14" ry="14" fill="#12343b" stroke="#e1b382" stroke-width="1.5" filter="url(#shadow)" />
  <text x="400" y="1336" fill="#e1b382" font-family="Segoe UI, Arial, sans-serif" font-size="13" font-weight="bold">Кв. 117</text>
  <rect x="550" y="1312" width="130" height="110" rx="14" ry="14" fill="#12343b" stroke="#e1b382" stroke-width="1.5" filter="url(#shadow)" />
  <text x="560" y="1336" fill="#e1b382" font-family="Segoe UI, Arial, sans-serif" font-size="13" font-weight="bold">Кв. 118</text>
  <rect x="550" y="1432" width="130" height="110" rx="14" ry="14" fill="#12343b" stroke="#e1b382" stroke-width="1.5" filter="url(#shadow)" />
  <text x="560" y="1456" fill="#e1b382" font-family="Segoe UI, Arial, sans-serif" font-size="13" font-weight="bold">Кв. 119</text>
  <rect x="550" y="1552" width="130" height="110" rx="14" ry="14" fill="#12343b" stroke="#e1b382" stroke-width="1.5" filter="url(#shadow)" />
  <text x="560" y="1576" fill="#e1b382" font-family="Segoe UI, Arial, sans-serif" font-size="13" font-weight="bold">Кв. 120</text>
  <text x="760" y="1280" fill="#fff" font-family="Segoe UI, Arial, sans-serif" font-size="20" font-weight="bold" letter-spacing="1">Этаж 22</text>
  <rect x="760" y="1552" width="130" height="110" rx="14" ry="14" fill="#12343b" stroke="#e1b382" stroke-width="1.5" filter="url(#shadow)" />
  <text x="770" y="1576" fill="#e1b382" font-family="Segoe UI, Arial, sans-serif" font-size="13" font-weight="bold">Кв. 121</text>
  <rect x="760" y="1432" width="130" height="110" rx="14" ry="14" fill="#12343b" stroke="#e1b382" stroke-width="1.5" filter="url(#shadow)" />
  <text x="770" y="1456" fill="#e1b382" font-family="Segoe UI, Arial, sans-serif" font-size="13" font-weight="bold">Кв. 122</text>
  <rect x="760" y="1312" width="130" height="110" rx="14" ry="14" fill="#2d545e" stroke="#e1b382" stroke-width="1.5" filter="url(#shadow)" />
  <text x="770" y="1336" fill="#e1b382" font-family="Segoe UI, Arial, sans-serif" font-size="13" font-weight="bold">Кв. 123</text>
  <text x="770" y="1356" fill="#fff" font-family="Segoe UI, Arial, sans-serif" font-size="13" font-weight="bold">1 жилец</text>
  <text x="770" y="1376" fill="#fff" font-family="Segoe UI, Arial, sans-serif" font-size="12">333</text>
  <rect x="920" y="1312" width="130" height="110" rx="14" ry="14" fill="#12343b" stroke="#e1b382" stroke-width="1.5" filter="url(#shadow)" />
  <text x="930" y="1336" fill="#e1b382" font-family="Segoe UI, Arial, sans-serif" font-size="13" font-weight="bold">Кв. 124</text>
  <rect x="920" y="1432" width="130" height="110" rx="14" ry="14" fill="#12343b" stroke="#e1b382" stroke-width="1.5" filter="url(#shadow)" />
  <text x="930" y="1456" fill="#e1b382" font-family="Segoe UI, Arial, sans-serif" font-size="13" font-weight="bold">Кв. 125</text>
  <rect x="920" y="1552" width="130" height="110" rx="14" ry="14" fill="#12343b" stroke="#e1b382" stroke-width="1.5" filter="url(#shadow)" />
  <text x="930" y="1576" fill="#e1b382" font-family="Segoe UI, Arial, sans-serif" font-size="13" font-weight="bold">Кв. 126</text>
  <text x="1130" y="1280" fill="#fff" font-family="Segoe UI, Arial, sans-serif" font-size="20" font-weight="bold" letter-spacing="1">Этаж 23</text>
  <rect x="1130" y="1552" width="130" height="110" rx="14" ry="14" fill="#12343b" stroke="#e1b382" stroke-width="1.5" filter="url(#shadow)" />
  <text x="1140" y="1576" fill="#e1b382" font-family="Segoe UI, Arial, sans-serif" font-size="13" font-weight="bold">Кв. 127</text>
  <rect x="1130" y="1432" width="130" height="110" rx="14" ry="14" fill="#12343b" stroke="#e1b382" stroke-width="1.5" filter="url(#shadow)" />
  <text x="1140" y="1456" fill="#e1b382" font-family="Segoe UI, Arial, sans-serif" font-size="13" font-weight="bold">Кв. 128</text>
  <rect x="1130" y="1312" width="130" height="110" rx="14" ry="14" fill="#12343b" stroke="#e1b382" stroke-width="1.5" filter="url(#shadow)" />
  <text x="1140" y="1336" fill="#e1b382" font-family="Segoe UI, Arial, sans-serif" font-size="13" font-weight="bold">Кв. 129</text>
  <rect x="1290" y="1312" width="130" height="110" rx="14" ry="14" fill="#12343b" stroke="#e1b382" stroke-width="1.5" filter="url(#shadow)" />
  <text x="1300" y="1336" fill="#e1b382" font-family="Segoe UI, Arial, sans-serif" font-size="13" font-weight="bold">Кв. 130</text>
  <rect x="1290" y="1432" width="130" height="110" rx="14" ry="14" fill="#12343b" stroke="#e1b382" stroke-width="1.5" filter="url(#shadow)" />
  <text x="1300" y="1456" fill="#e1b382" font-family="Segoe UI, Arial, sans-serif" font-size="13" font-weight="bold">Кв. 131</text>
  <rect x="1290" y="1552" width="130" height="110" rx="14" ry="14" fill="#12343b" stroke="#e1b382" stroke-width="1.5" filter="url(#shadow)" />
  <text x="1300" y="1576" fill="#e1b382" font-family="Segoe UI, Arial, sans-serif" font-size="13" font-weight="bold">Кв. 132</text>
</svg>